<?xml version="1.0" ?><svg id="Layer_1" style="enable-background:new 0 0 30 30;" version="1.1" viewBox="0 0 30 30" xml:space="preserve" xmlns="http://www.w3.org/2000/svg" xmlns:xlink="http://www.w3.org/1999/xlink"><style type="text/css">
	.st0{fill:#DF4D60;}
	.st1{fill:#B5E06C;}
</style><g><path class="st0" d="M20.938,16.407c0,0,4.75-8.187,8.125,0.75c0.031,0.063,1.844,10.031-5.25,10.5c0,0-9.625-1.594-9.094-8.844   C14.813,18.876,17.281,16.126,20.938,16.407z"/><path class="st0" d="M10.951,17.264c0,0,8.17-1.49,4.237,7.216c-1.166,1.003-4.563,5.792-10.159,2.771   c0,0-5.679-7.933-0.177-12.684C4.874,14.679,7.375,12.981,10.951,17.264z"/><path class="st1" d="M0.75,5.001c-0.101-0.084,6.708-4.542,10.708,1C11.458,6.085,8.5,11.418,0.75,5.001z"/><path class="st1" d="M29.288,2.835c0.135,0.02-2.932,7.774-9.554,4.956C19.685,7.715,19.011,1.278,29.288,2.835z"/><path d="M25.977,12.656c-1.761-0.17-3.712,1.551-4.748,2.63c-0.133-1.664-0.758-3.698-2.487-5.828l1.433-0.85   c0.13,0.107,0.273,0.204,0.437,0.283c0.417,0.203,0.919,0.302,1.474,0.302c0.878,0,1.89-0.25,2.912-0.736   c2.471-1.176,4.521-5.079,4.607-5.244c0.052-0.099,0.06-0.214,0.022-0.319c-0.037-0.104-0.116-0.189-0.219-0.233   c-0.141-0.061-3.459-1.468-5.971-0.271c-2.576,1.227-4.295,3.498-3.914,5.171c0.033,0.147,0.082,0.286,0.145,0.416L18.21,8.842   c-0.384-0.424-0.817-0.849-1.297-1.276c0.028-0.291,0.057-0.581,0.075-0.887c0.13-2.189,0.464-3.851,0.993-4.94   c0.097-0.199,0.015-0.438-0.185-0.535c-0.2-0.097-0.438-0.013-0.534,0.185c-0.576,1.184-0.938,2.948-1.073,5.243   c-0.006,0.104-0.018,0.199-0.025,0.301c-0.45-0.362-0.925-0.723-1.452-1.083c-1.871-1.274-3.147-2.447-3.793-3.486   c-0.117-0.187-0.362-0.245-0.551-0.128c-0.188,0.117-0.245,0.363-0.128,0.551c0.591,0.949,1.641,1.983,3.118,3.079l-1.614-0.12   c-0.068-0.715-0.547-1.403-1.426-1.964C9.382,3.188,8.113,2.791,6.743,2.665c-2.817-0.26-6.083,1.976-6.22,2.071   c-0.098,0.067-0.16,0.175-0.171,0.292C0.341,5.147,0.383,5.263,0.466,5.347c0.118,0.119,2.924,2.908,5.741,3.166   c0.305,0.028,0.607,0.042,0.904,0.042c1.039,0,2.015-0.168,2.813-0.492c0.896-0.363,1.477-0.895,1.717-1.52l2.967,0.22   c0.531,0.377,1.025,0.754,1.468,1.131c-0.597,5.178-2.817,7.667-4.741,8.86c-0.815-0.783-3.758-3.415-6.042-2.997   c-0.913,0.168-1.604,0.78-2.055,1.819c-1.956,4.511-1.122,11.104,2.887,12.843c0.661,0.286,1.36,0.418,2.075,0.418   c2.887,0,6.016-2.149,7.961-4.834c2.054,2.31,4.962,3.973,7.599,3.973c0.878,0,1.726-0.185,2.502-0.591   c3.87-2.026,4.221-8.663,1.94-13.02C27.656,13.32,26.906,12.745,25.977,12.656z M20.303,7.384   c-0.291-1.279,1.302-3.235,3.479-4.271c0.619-0.295,1.313-0.4,1.988-0.4c1.186,0,2.318,0.326,2.905,0.527   c-0.579,1.006-2.225,3.639-4.021,4.495c-1.43,0.68-2.845,0.848-3.693,0.437c-0.009-0.004-0.013-0.012-0.021-0.016l3.473-2.059   c0.189-0.113,0.253-0.358,0.14-0.548c-0.111-0.189-0.356-0.251-0.548-0.14l-3.618,2.145C20.361,7.494,20.317,7.448,20.303,7.384z    M9.624,7.321C8.713,7.69,7.526,7.829,6.28,7.716C4.304,7.535,2.226,5.859,1.401,5.125c0.943-0.572,3.296-1.85,5.269-1.663   c1.246,0.114,2.388,0.467,3.217,0.996c0.59,0.376,0.948,0.81,1.05,1.23L7.778,5.454C7.547,5.441,7.366,5.603,7.35,5.823   C7.334,6.044,7.499,6.236,7.719,6.252l3.06,0.227C10.561,6.803,10.173,7.098,9.624,7.321z M16.796,8.537   c0.353,0.335,0.665,0.667,0.957,0.998c0.006,0.012,0.006,0.025,0.013,0.036c0.036,0.061,0.087,0.108,0.144,0.141   c2.014,2.366,2.546,4.598,2.547,6.291c-0.858,0.109-3.316,0.506-4.932,1.593c-0.035-0.03-0.073-0.057-0.119-0.074   c-0.98-0.367-2.077-0.534-2.896-0.61C14.312,15.523,16.159,13.022,16.796,8.537z M6.444,27.684   c-3.536-1.533-4.244-7.704-2.471-11.791c0.343-0.791,0.822-1.232,1.465-1.351c1.815-0.335,4.621,2.039,5.543,2.983   c0.009,0.01,0.024,0.012,0.035,0.019c0.074,0.066,0.161,0.113,0.259,0.113c0.014,0,0.027-0.009,0.041-0.011   c0.229,0.004,1.973,0.03,3.506,0.526c-0.193,0.199-0.362,0.412-0.49,0.647c-0.443,0.815-0.401,1.738,0.125,2.741   c0.329,0.628,0.729,1.236,1.182,1.814C13.425,26.547,9.457,28.989,6.444,27.684z M25.892,26.676   c-3.413,1.786-8.659-1.539-10.726-5.485c-0.4-0.763-0.442-1.413-0.13-1.988c0.886-1.634,4.49-2.314,5.802-2.438l0.17-0.017   l0.105-0.133c0.723-0.904,2.912-3.17,4.614-3.17c0.058,0,0.116,0.003,0.173,0.008c0.653,0.063,1.175,0.483,1.594,1.284   C29.56,18.683,29.306,24.889,25.892,26.676z"/></g></svg>