<?xml version="1.0" ?><svg id="Layer_1" style="enable-background:new 0 0 30 30;" version="1.1" viewBox="0 0 30 30" xml:space="preserve" xmlns="http://www.w3.org/2000/svg" xmlns:xlink="http://www.w3.org/1999/xlink"><style type="text/css">
	.st0{fill:#97C2F7;}
	.st1{fill:#B3B3B3;}
	.st2{fill:#FB7B76;}
	.st3{fill:none;stroke:#000000;stroke-width:0.8;stroke-linecap:round;stroke-linejoin:round;stroke-miterlimit:10;}
	.st4{fill:none;stroke:#000000;stroke-width:0.75;stroke-linecap:round;stroke-linejoin:round;stroke-miterlimit:10;}
</style><g><circle class="st0" cx="14.753" cy="13.331" r="1.403"/><polygon class="st1" points="16.792,29.285 12.678,29.285 13.953,15 15.833,15  "/><path class="st2" d="M12.554,1.262l2.85,7.747c0,0-0.094,1.65-0.966,2.658s-0.816-1.373-0.816-1.373l-1.804-8.632   C11.818,1.662,11.827-0.008,12.554,1.262z"/><path class="st2" d="M26.649,13.786l-7.968,1.2c0,0-1.56-0.414-2.352-1.444c-0.793-1.03,1.473-0.509,1.473-0.509l8.609-0.028   C26.411,13.005,28.006,13.341,26.649,13.786z"/><path class="st2" d="M5.112,20.283l5.39-5.99c0,0,1.467-0.672,2.734-0.38s-0.814,1.329-0.814,1.329l-6.629,5.492   C5.792,20.735,4.347,21.489,5.112,20.283z"/><g><path class="st3" d="M17.133,26.523"/><path class="st4" d="M18.621,1.425c2.277,0.798,4.251,2.281,5.693,4.213"/><path class="st4" d="M25.888,18.241c-1.111,2.715-3.114,4.94-5.628,6.278"/><g><g><ellipse class="st4" cx="14.753" cy="13.331" rx="1.351" ry="1.403"/><path class="st4" d="M6.388,20.682c-0.161,0.135-0.389,0.319-0.545,0.416c-0.268,0.167-0.562,0.092-0.838-0.02      c-0.102-0.041-0.094-0.119-0.03-0.194c0.218-0.258,1.006-1.178,1.006-1.178c-0.001,0-0.001-0.001-0.002-0.001      c0.37-0.439,0.729-0.868,1.091-1.296c1.215-1.437,2.434-2.871,3.643-4.313c0.212-0.253,0.451-0.36,0.753-0.242      c0.496,0.194,0.965,0.145,1.427-0.11c0.138-0.076,0.29-0.124,0.43-0.183c0.121,0.235,0.235,0.454,0.36,0.696      c-0.2,0.178-0.416,0.375-0.635,0.568c-1.737,1.527-3.475,3.054-5.213,4.581L6.388,20.682z"/><path class="st4" d="M11.905,2.208c-0.04-0.211-0.09-0.507-0.1-0.694c-0.017-0.324,0.184-0.559,0.408-0.761      c0.083-0.075,0.145-0.031,0.179,0.063c0.117,0.321,0.534,1.473,0.534,1.473c0.001,0,0.001-0.001,0.002-0.001      c0.201,0.544,0.399,1.075,0.594,1.607c0.657,1.787,1.309,3.575,1.972,5.359c0.116,0.313,0.096,0.583-0.145,0.804      c-0.396,0.365-0.574,0.819-0.572,1.362c0.001,0.162-0.029,0.324-0.045,0.481c-0.257,0.002-0.496,0.004-0.761,0.006      c-0.059-0.267-0.125-0.557-0.187-0.849c-0.49-2.309-0.979-4.618-1.469-6.927L11.905,2.208z"/><path class="st4" d="M26.034,13.135c0.207,0.01,0.495,0.03,0.673,0.064c0.307,0.06,0.479,0.319,0.615,0.593      c0.05,0.101-0.006,0.154-0.102,0.166c-0.328,0.042-1.505,0.188-1.505,0.188c0,0.001,0.001,0.002,0.001,0.002      c-0.557,0.074-1.1,0.147-1.644,0.217c-1.827,0.238-3.655,0.47-5.481,0.715c-0.321,0.043-0.567-0.042-0.718-0.338      c-0.247-0.487-0.629-0.774-1.138-0.901c-0.152-0.038-0.296-0.107-0.439-0.16c0.059-0.259,0.114-0.501,0.175-0.769      c0.263,0.004,0.551,0.006,0.838,0.013c2.275,0.055,4.551,0.11,6.826,0.166L26.034,13.135z"/></g><path class="st4" d="M14.753,15.092"/><polyline class="st4" points="15.704,14.485 17.026,29.285 12.678,29.285 13.975,14.757    "/><path class="st4" d="M3.301,17.379c-0.416-1.27-0.641-2.631-0.641-4.047c0-3.83,1.65-7.26,4.252-9.564"/><path class="st4" d="M11.803,25.517c-1.912-0.498-3.644-1.469-5.074-2.786"/><path class="st4" d="M17.588,3.77c2.21,0.706,4.081,2.216,5.296,4.202"/><path class="st4" d="M5.187,14.485c-0.042-0.378-0.063-0.763-0.063-1.153c0-2.968,1.244-5.634,3.221-7.466"/><path class="st4" d="M11.77,22.844c-1.282-0.433-2.446-1.139-3.428-2.05"/><path class="st4" d="M17.591,22.892"/></g><path class="st4" d="M23.852,16.61c-0.75,2.247-2.25,4.13-4.188,5.326"/><line class="st4" x1="10.224" x2="19.48" y1="29.285" y2="29.285"/><line class="st4" x1="20.492" x2="21.467" y1="29.285" y2="29.285"/></g></g></svg>