<?xml version="1.0" encoding="UTF-8"?><!DOCTYPE svg PUBLIC "-//W3C//DTD SVG 1.1//EN" "http://www.w3.org/Graphics/SVG/1.1/DTD/svg11.dtd"><svg xmlns="http://www.w3.org/2000/svg"><symbol id="icon-1" viewBox="0 0 30 30">
    <style>
        .st0{fill:#df4d60}.st1{fill:#b5e06c}
    </style>
    <path class="st0" d="M20.938 16.407s4.75-8.187 8.125.75c.031.063 1.844 10.031-5.25 10.5 0 0-9.625-1.594-9.094-8.844.094.063 2.562-2.687 6.219-2.406z"/>
    <path class="st0" d="M10.951 17.264s8.17-1.49 4.237 7.216c-1.166 1.003-4.563 5.792-10.159 2.771 0 0-5.679-7.933-.177-12.684.022.112 2.523-1.586 6.099 2.697z"/>
    <path class="st1" d="M.75 5.001c-.101-.084 6.708-4.542 10.708 1 0 .084-2.958 5.417-10.708-1z"/>
    <path class="st1" d="M29.288 2.835c.135.02-2.932 7.774-9.554 4.956-.049-.076-.723-6.513 9.554-4.956z"/>
    <path d="M25.977 12.656c-1.761-.17-3.712 1.551-4.748 2.63-.133-1.664-.758-3.698-2.487-5.828l1.433-.85c.13.107.273.204.437.283.417.203.919.302 1.474.302.878 0 1.89-.25 2.912-.736 2.471-1.176 4.521-5.079 4.607-5.244a.399.399 0 0 0-.197-.552c-.141-.061-3.459-1.468-5.971-.271-2.576 1.227-4.295 3.498-3.914 5.171.033.147.082.286.145.416l-1.458.865a16.925 16.925 0 0 0-1.297-1.276c.028-.291.057-.581.075-.887.13-2.189.464-3.851.993-4.94a.399.399 0 1 0-.719-.35c-.576 1.184-.938 2.948-1.073 5.243-.006.104-.018.199-.025.301-.45-.362-.925-.723-1.452-1.083-1.871-1.274-3.147-2.447-3.793-3.486a.4.4 0 0 0-.679.423c.591.949 1.641 1.983 3.118 3.079l-1.614-.12c-.068-.715-.547-1.403-1.426-1.964-.936-.594-2.205-.991-3.575-1.117C3.926 2.405.66 4.641.523 4.736a.4.4 0 0 0-.057.611c.118.119 2.924 2.908 5.741 3.166.305.028.607.042.904.042 1.039 0 2.015-.168 2.813-.492.896-.363 1.477-.895 1.717-1.52l2.967.22c.531.377 1.025.754 1.468 1.131-.597 5.178-2.817 7.667-4.741 8.86-.815-.783-3.758-3.415-6.042-2.997-.913.168-1.604.78-2.055 1.819-1.956 4.511-1.122 11.104 2.887 12.843.661.286 1.36.418 2.075.418 2.887 0 6.016-2.149 7.961-4.834 2.054 2.31 4.962 3.973 7.599 3.973.878 0 1.726-.185 2.502-.591 3.87-2.026 4.221-8.663 1.94-13.02-.546-1.045-1.296-1.62-2.225-1.709zm-5.674-5.272c-.291-1.279 1.302-3.235 3.479-4.271.619-.295 1.313-.4 1.988-.4 1.186 0 2.318.326 2.905.527-.579 1.006-2.225 3.639-4.021 4.495-1.43.68-2.845.848-3.693.437-.009-.004-.013-.012-.021-.016l3.473-2.059a.4.4 0 0 0-.408-.688l-3.618 2.145c-.026-.06-.07-.106-.084-.17zM9.624 7.321c-.911.369-2.098.508-3.344.395-1.976-.181-4.054-1.857-4.879-2.591.943-.572 3.296-1.85 5.269-1.663 1.246.114 2.388.467 3.217.996.59.376.948.81 1.05 1.23l-3.159-.234a.395.395 0 0 0-.428.369.4.4 0 0 0 .369.429l3.06.227c-.218.324-.606.619-1.155.842zm7.172 1.216c.353.335.665.667.957.998.006.012.006.025.013.036a.397.397 0 0 0 .144.141c2.014 2.366 2.546 4.598 2.547 6.291-.858.109-3.316.506-4.932 1.593a.392.392 0 0 0-.119-.074c-.98-.367-2.077-.534-2.896-.61 1.802-1.389 3.649-3.89 4.286-8.375zM6.444 27.684C2.908 26.151 2.2 19.98 3.973 15.893c.343-.791.822-1.232 1.465-1.351 1.815-.335 4.621 2.039 5.543 2.983.009.01.024.012.035.019a.393.393 0 0 0 .259.113c.014 0 .027-.009.041-.011.229.004 1.973.03 3.506.526a2.999 2.999 0 0 0-.49.647c-.443.815-.401 1.738.125 2.741.329.628.729 1.236 1.182 1.814-2.214 3.173-6.182 5.615-9.195 4.31zm19.448-1.008c-3.413 1.786-8.659-1.539-10.726-5.485-.4-.763-.442-1.413-.13-1.988.886-1.634 4.49-2.314 5.802-2.438l.17-.017.105-.133c.723-.904 2.912-3.17 4.614-3.17.058 0 .116.003.173.008.653.063 1.175.483 1.594 1.284 2.066 3.946 1.812 10.152-1.602 11.939z"/>
</symbol><symbol id="icon-2" viewBox="0 0 30 30">
    <style>
        .st0{fill:#a14f4c}.st1{fill:#f0c419}.st2{fill:none;stroke:#000;stroke-width:.8;stroke-linecap:round;stroke-linejoin:round;stroke-miterlimit:10}
    </style>
    <path class="st0" d="M14.921 1.353s-4.745 4.709-.084 11.194c.034-.004 6.306-4.7.084-11.194z"/>
    <path class="st0" d="M3.904 6.766s.649 6.653 8.62 7.142c.018-.029.345-7.857-8.62-7.142z"/>
    <path class="st0" d="M.844 18.813s5.814 3.299 11.063-2.179c-.01-.031-6.076-4.759-11.063 2.179z"/>
    <path class="st0" d="M8.661 28.618s6.229-2.425 5.297-9.954c-.03-.012-7.527 1.706-5.297 9.954z"/>
    <path class="st0" d="M21.118 28.649s2.056-6.46-4.607-10.291c-.03.016-3.47 7.061 4.607 10.291z"/>
    <path class="st0" d="M26.268 6.817s-6.748-.646-9.087 6.675c.022.026 7.634 1.902 9.087-6.675z"/>
    <path class="st0" d="M29.438 19.084s-4.548-6.016-11.452-2.638c-.003.033 4.255 7.525 11.452 2.638z"/>
    <ellipse class="st1" cx="15.191" cy="15.5" rx="2.247" ry="2.345"/>
    <g>
        <path class="st2" d="M17.453 6.958c0 3.341-2.363 6.05-2.363 6.05s-2.363-2.708-2.363-6.05S15.09.908 15.09.908s2.363 2.709 2.363 6.05z"/>
        <path class="st2" d="M9.687 8.351c2.612 2.083 3.256 5.619 3.256 5.619s-3.591.159-6.203-1.924-3.256-5.619-3.256-5.619 3.591-.159 6.203 1.924z"/>
        <path class="st2" d="M5.935 15.291c3.257-.743 6.424.958 6.424.958s-2.115 2.907-5.372 3.65c-3.257.743-6.424-.958-6.424-.958s2.114-2.907 5.372-3.65z"/>
        <path class="st2" d="M9.021 22.552c1.45-3.01 4.754-4.425 4.754-4.425s.954 3.466-.496 6.476-4.754 4.425-4.754 4.425-.954-3.466.496-6.476z"/>
        <path class="st2" d="M16.622 24.666c-1.45-3.01-.496-6.476-.496-6.476s3.304 1.415 4.754 4.425c1.45 3.01.496 6.476.496 6.476s-3.305-1.414-4.754-4.425z"/>
        <path class="st2" d="M23.014 20.042c-3.257-.743-5.372-3.65-5.372-3.65s3.166-1.701 6.424-.958c3.257.743 5.372 3.65 5.372 3.65s-3.167 1.701-6.424.958z"/>
        <path class="st2" d="M23.384 12.161c-2.612 2.083-6.203 1.924-6.203 1.924s.644-3.536 3.256-5.619 6.203-1.924 6.203-1.924-.644 3.536-3.256 5.619z"/>
        <circle class="st2" cx="15.09" cy="15.496" r="2.349"/>
        <circle cx="15.141" cy="13.859" r=".229"/>
        <circle cx="14.751" cy="14.7" r=".229"/>
        <circle cx="16.582" cy="15.332" r=".229"/>
        <circle cx="13.629" cy="16.046" r=".229"/>
        <circle cx="15.371" cy="15.87" r=".229"/>
        <circle cx="15.882" cy="16.681" r=".229"/>
        <circle cx="15.319" cy="14.7" r=".229"/>
        <circle cx="15.319" cy="15.246" r=".229"/>
        <circle cx="15.882" cy="15.332" r=".229"/>
        <ellipse cx="15.741" cy="14.141" rx=".229" ry=".229" transform="rotate(-83.073 15.741 14.141)"/>
        <ellipse cx="14.459" cy="13.973" rx=".229" ry=".229" transform="rotate(-83.073 14.459 13.973)"/>
        <circle cx="16.276" cy="15.94" r=".229"/>
        <circle cx="16.276" cy="14.7" r=".229"/>
        <circle cx="14.476" cy="15.246" r=".229"/>
        <circle cx="14.706" cy="15.817" r=".229"/>
        <circle cx="14.229" cy="16.223" r=".229"/>
        <circle cx="14.182" cy="14.47" r=".229"/>
        <circle cx="13.723" cy="14.7" r=".229"/>
        <circle cx="15.229" cy="16.634" r=".229"/>
        <circle cx="14.459" cy="16.998" r=".229"/>
        <circle cx="13.723" cy="15.332" r=".229"/>
        <path class="st2" d="M15.09 12.344l.051-3.688"/>
        <path class="st2" d="M12.542 13.629l-2.969-2.188"/>
        <path class="st2" d="M12.009 16.277l-3.554.984"/>
        <path class="st2" d="M13.595 18.422l-1.586 3.329"/>
        <path class="st2" d="M16.215 18.127l1.194 3.489"/>
        <path class="st2" d="M18.056 16.349l3.452 1.298"/>
        <path class="st2" d="M17.359 13.86l2.784-2.419"/>
    </g>
</symbol><symbol id="icon-3" viewBox="0 0 30 30">
    <style>
        .st0{fill:#f0df9e}.st1{fill:#a3875e}
    </style>
    <path class="st0" d="M12.65 17.383l3.302-1.563 4.438-2.938 4.219-2.906s3.063-2.426 3.438 2.615c0 0 1.125 2.416-3.875 4.26 0 0-1.781 2.563-2.531 5.125 0 0-2.5 6.188-10.219 2.688 0 0-8.281-.719-9.063.188s4.25-3.25 4.25-3.25l6.041-4.219z"/>
    <path class="st1" d="M16.9 15.216l-4.958 2.417s-3.625 9.5-9.125 1.333c.083.167-4.083-12.167 5.875-13.792 0 0 7.138-.665 8.208 10.042z"/>
    <path d="M28.436 12.389c-.254-1.342-.673-2.3-1.248-2.862l.109-4.821a.54.54 0 0 0-.395-.917.547.547 0 0 0-.546.546c0 .139.056.263.142.359l-.099 4.349a1.825 1.825 0 0 0-.709-.09l.097-4.259a.532.532 0 0 0 .122-.328.547.547 0 0 0-1.092 0 .54.54 0 0 0 .17.392l-.099 4.379c0 .019.007.036.01.054l-.012.007c-1.152.828-5.998 4.25-7.642 5.411-.282-2.21-1.646-9.059-7.752-9.704-.522-.045-3.205-.149-5.346 1.869-1.824 1.718-2.71 4.458-2.633 8.155.011.224.309 5.507 3.582 7.205l.055.03c-1.197.592-2.645 1.966-2.996 2.309-.129.126-.158.323-.07.48s.27.242.446.193c5.559-1.381 11.967.782 12.05.81a6.06 6.06 0 0 0 1.704.255c4.334-.001 6.167-5.245 6.196-5.34.844-3.684 2.936-4.336 2.975-4.351 1.094-.166 1.911-.625 2.431-1.364.847-1.207.563-2.707.55-2.767zM2.312 14.901c-.072-3.45.729-5.989 2.382-7.545 1.591-1.499 3.572-1.667 4.384-1.667.176 0 .297.008.348.012 5.902.624 6.92 7.884 7.067 9.379l-3.509 1.606-.009.004-.471.215c.104-.448.232-1.268.186-2.339l.004-.053c.001-.021-.007-.038-.01-.058a11.16 11.16 0 0 0-.6-3.041v-.001c-.195-.559-1.273-3.373-3.375-3.873-1.169-.276-2.406.203-3.678 1.43-1.784 1.723-2.089 5.071-1.47 7.488.437 1.707 1.296 2.852 2.356 3.14.159.044.342.072.546.072.621 0 1.438-.268 2.387-1.221 1.459-1.466 1.988-5.263.509-6.993-.696-.814-1.359-.845-1.796-.726-1.041.283-1.738 1.662-1.945 2.823-.177.992.002 1.761.493 2.11.186.133.604.302.996.098.347-.181.521-.569.515-1.154 0-.222-.202-.417-.402-.397a.4.4 0 0 0-.396.404c.003.359-.084.436-.085.437-.026.012-.121-.011-.162-.04-.173-.124-.3-.588-.17-1.318.192-1.073.792-2.036 1.368-2.192.312-.084.637.076.978.474 1.184 1.385.731 4.704-.468 5.909-.545.548-1.363 1.153-2.155.941-.763-.208-1.433-1.168-1.792-2.567-.549-2.139-.297-5.219 1.25-6.714C6.65 8.519 7.637 8.106 8.525 8.317c1.731.412 2.699 3.058 2.804 3.358a10.35 10.35 0 0 1 .561 2.876c-.117 2.929-.882 5.031-2.278 6.241a4.58 4.58 0 0 1-2.491 1.081 4.25 4.25 0 0 1-1.643-.441c-2.879-1.494-3.164-6.493-3.166-6.531zm24.915-.2c-.39.551-1.025.897-1.938 1.039-.107.029-2.631.773-3.577 4.915-.082.242-2.066 5.938-6.89 4.54-.249-.086-5.673-1.918-11.042-1.11.963-.801 1.921-1.42 2.321-1.396.192.021.565.042 1.036-.006.06.003.118.009.18.009.498 0 1.045-.085 1.603-.323 1.473-.629 2.583-2.125 3.31-4.455l4.853-2.221c.024-.011.035-.035.056-.049l.009.012s6.811-4.806 8.172-5.786c.019-.011.461-.255.948-.027.437.203 1.031.835 1.385 2.699 0 .01.226 1.236-.426 2.159z"/>
    <path d="M25.23 12.214a.455.455 0 0 1 .91 0c0 .503-.91.503-.91 0z"/>
</symbol><symbol id="icon-4" viewBox="0 0 30 30">
    <style>
        .st0{fill:#39b54a}.st1{fill:#5b4531}.st2{fill:#009245}.st3{fill:#6b6256}
    </style>
    <path class="st0" d="M8.907 5.489s.458-3.277 3.333-2.826c0 0 2.562-3.894 5.458-.716 0 0 2.572-.5 3.182 2.375 0 0 2.61-.625 3.443 3.042 0 0 2.167 1.875 0 4.125 0 0 .447 4.625-3.443 2.5 0 0-.682 4.033-3.64.558S12.615 15 12.615 15s-2.292 2.947-3.708.531l.25-1.333s-4.25 3.328-3.542-2.125c0 0-2.667-3.042.125-4.042 0 0 .5-4.292 3.167-2.542z"/>
    <path class="st1" d="M17.219 14.76s-1.469 4.094-1.313 6.906c.156 2.813 1.313 7.259 1.313 7.259l-4.781.4.75-2.597s.844-3.344.844-3.906-.75-5.688-.75-5.938-.548-2.125-.548-2.125l.985-1 .625.844.344.75.344.188.938-1.188.75-.594.499 1.001z"/>
    <path class="st2" d="M16.907 3.197s2.625-1.042 3.25 3.542c0 0 1.417-.208 1.542 1.083 0 0 2.375 2-.167 2.958 0 0 1.375 2.875-2.25 1.458 0 0 .5 1.5-.583 1L17.656 15s1.418 2.386 3.168 0l.057-1.011s2.693 2.333 3.526-1.25l-.083-1.25s2.125-2.583 0-4.125c0 0-.261-3.292-3.443-3.042 0 0-1.765-3.792-3.182-2.375 0 0-3.458-3-5.458.417-.001 0-.417 3.917 4.666.833z"/>
    <path class="st3" d="M17.196 13.76s-4.049 5.693-.556 15.565h.768s-1.115-4.382-1.247-5.884c-.101-1.15-.022-3.479.153-4.619.161-1.05.97-4.126.97-4.126l-.088-.936z"/>
    <path d="M9.032 28.925H7.876a.4.4 0 0 0 0 .8h1.156a.4.4 0 0 0 0-.8z"/>
    <path d="M20.48 28.925h-.289a.4.4 0 0 0 0 .8h.289a.4.4 0 0 0 0-.8z"/>
    <path d="M25.708 9.251a3.09 3.09 0 0 0-1.094-2.201c-.078-.917-.48-1.773-1.134-2.361a3.017 3.017 0 0 0-2.184-.789 3.53 3.53 0 0 0-1.042-1.76 3.05 3.05 0 0 0-2.203-.791c-.122.008-.24.038-.359.06a3.44 3.44 0 0 0-2.76-1.143 3.463 3.463 0 0 0-2.779 1.658c-.068-.009-.133-.025-.202-.029-.798-.052-1.583.234-2.202.79a3.525 3.525 0 0 0-1.042 1.76 3.004 3.004 0 0 0-2.185.79c-.656.589-1.058 1.445-1.135 2.362a3.086 3.086 0 0 0-1.094 2.2c-.043.914.333 1.781.989 2.415a2.761 2.761 0 0 0-.166.785c-.068 1.427.947 2.65 2.263 2.727a2.237 2.237 0 0 0 1.253-.32c.2.826.971 1.475 1.928 1.53l.118.003c.702 0 1.329-.383 1.834-1.095.662 1.884 1.028 4.045 1.028 6.323 0 2.461-.415 4.791-1.184 6.773H10.57a.4.4 0 0 0 0 .8h8.379a.4.4 0 0 0 0-.8h-1.302c-.843-2.024-1.316-4.528-1.316-7.101 0-2.387.395-4.649 1.12-6.593.441.729 1.111 1.146 1.868 1.146.041 0 .082-.001.124-.004.956-.055 1.728-.704 1.928-1.53a2.23 2.23 0 0 0 1.253.32c1.314-.076 2.33-1.299 2.262-2.727a2.773 2.773 0 0 0-.165-.784c.654-.633 1.03-1.5.987-2.414zM15.53 21.838c0 2.59.448 5.02 1.265 7.101h-3.596c.735-2.011 1.139-4.329 1.139-6.773 0-2.58-.437-5.035-1.255-7.12a6.04 6.04 0 0 1 .558-.632l1.029 1.822c.071.126.195.182.348.203a.4.4 0 0 0 .346-.198l1.211-2.079c.115.099.221.208.322.32-.024.03-.048.059-.063.096-.853 2.113-1.304 4.624-1.304 7.26zm-1.254-7.926c.354-.218.699-.328 1.019-.317.208.005.409.057.603.138l-.875 1.502-.747-1.323zm9.817-2.747c-.009.004-.019.003-.028.008a.397.397 0 0 0-.192.216.396.396 0 0 0-.005.476c.03.04.07.065.109.09.057.171.1.347.109.534.047.991-.63 1.839-1.51 1.89-.638.041-1.232-.357-1.513-1.005-.001-.002-.003-.003-.003-.005-.01-.013-.014-.029-.024-.042-.004-.005-.01-.007-.014-.012a.394.394 0 0 0-.485-.149.4.4 0 0 0-.208.526c.024.056.064.098.092.152a.987.987 0 0 1 .206.551c.029.617-.522 1.153-1.231 1.194-.75.038-1.153-.549-1.298-.804-.533-.942-1.544-1.96-2.783-1.989-1.191-.031-2.326.818-3.396 2.512-.382.578-.811.852-1.313.828-.708-.041-1.261-.577-1.231-1.194a.988.988 0 0 1 .207-.552c.027-.053.067-.095.091-.15a.4.4 0 0 0-.207-.526.389.389 0 0 0-.484.146c-.005.006-.012.008-.016.014-.016.02-.022.045-.038.066-.285.635-.868 1.031-1.502.986-.88-.051-1.557-.899-1.51-1.889.009-.187.052-.364.109-.535.039-.025.079-.05.108-.09a.394.394 0 0 0-.001-.471.393.393 0 0 0-.196-.221c-.01-.005-.02-.004-.03-.008-.538-.479-.847-1.159-.813-1.875.021-.431.171-.832.407-1.179.074.1.174.175.303.175a.404.404 0 0 0 .394-.462 3.007 3.007 0 0 1-.025-.475.393.393 0 0 0 .013-.262c.068-.704.374-1.357.871-1.804a2.228 2.228 0 0 1 1.539-.582c-.005.17-.003.34.013.505a.4.4 0 0 0 .398.358c.014 0 .027 0 .042-.002a.4.4 0 0 0 .357-.439 2.892 2.892 0 0 1-.012-.448c.036-.758.361-1.465.891-1.942a2.223 2.223 0 0 1 1.621-.586c.033.002.065.01.097.014a.394.394 0 0 0 .146.121.4.4 0 0 0 .53-.198 2.666 2.666 0 0 1 2.295-1.565 2.667 2.667 0 0 1 2.421 1.273.399.399 0 0 0 .55.132.392.392 0 0 0 .184-.323c.58-.026 1.14.181 1.59.585.529.477.854 1.185.891 1.941.007.153.002.303-.013.45a.401.401 0 0 0 .358.438l.041.002a.4.4 0 0 0 .397-.36c.016-.164.018-.333.013-.504a2.235 2.235 0 0 1 1.539.582c.497.447.804 1.1.871 1.804a.39.39 0 0 0 .013.261c.001.161-.002.322-.025.477a.4.4 0 0 0 .397.459c.129 0 .229-.075.303-.175a2.3 2.3 0 0 1 .406 1.179c.034.718-.276 1.399-.816 1.878z"/>
</symbol><symbol id="icon-5" viewBox="0 0 30 30">
    <style>
        .st0{fill:#01acf7}.st1{fill:#feed00}.st2{fill:#00d95e}.st3{fill:#f50615}
    </style>
    <path class="st0" d="M18.75 5.249s3.333 5.125 2.75 11c0 0 2.083-2.25 5.917-.208.042.041-2.458-9.542-8.667-10.792z"/>
    <path class="st1" d="M17.563 4.895s-3.042 6.875-2.958 9.854c0 0 4.708-1.729 6.813 1.396-.001 0-.147-9.729-3.855-11.25z"/>
    <path class="st2" d="M16.907 4.895s-5.938 1.865-8.25 7.74c0 0 3.031-1.781 5.625 1.75 0 0 1.531-7.188 3.031-9.49.516-.793-.406 0-.406 0z"/>
    <path class="st3" d="M16.709 4.637s-8.628-1.491-14.204 5.73c0 0 2.696-1.283 5.988 2.029 0 0 2.038-5.919 8.216-7.759z"/>
    <path d="M17.625 3.291l-.5.781 1.188.437z"/>
    <path d="M18.88 4.528l-.594-1.967a.4.4 0 0 0-.694-.137L16.4 3.89c-2.584-.13-10.092.105-14.162 6.728a.4.4 0 0 0 .557.546c.012-.007 1.197-.75 2.636-.422 1.016.233 1.916.961 2.685 2.132-.009.03-.022.056-.031.086a.4.4 0 0 0 .767.228l.017-.048c.015-.014.038-.019.05-.036.174-.127 1.094-.628 2.229-.442 1.115.184 2.086.971 2.894 2.325l-.017.093c-.003.018.002.034.002.051l-2.99 11.085a.958.958 0 0 1-1.169.674.955.955 0 0 1-.673-1.17l.318-1.179a.398.398 0 0 0-.282-.49.398.398 0 0 0-.49.281l-.321 1.179a1.757 1.757 0 0 0 1.693 2.211c.773 0 1.483-.516 1.694-1.297l3.013-11.17.001-.015c.685-.306 3.782-1.472 6.277 1.056-.003.031-.003.061-.007.092a.4.4 0 0 0 .352.443l.046.002a.4.4 0 0 0 .397-.354c.005-.044.005-.085.009-.128.584-.39 2.889-1.678 5.26.413a.4.4 0 0 0 .662-.349c-.01-.09-1.163-8.614-8.937-11.887zm-1.141-1.014l.204.674c-.043-.014-.083-.03-.125-.045a.39.39 0 0 0-.189-.068c-.092-.029-.172-.068-.266-.096h-.001l.377-.465zM5.609 9.963a4.325 4.325 0 0 0-1.968.019c3.738-4.935 9.686-5.374 12.272-5.309-2.118.926-5.792 3.077-7.47 7.288-.816-1.067-1.761-1.752-2.834-1.998zm3.841 2.033c-.052.015-.126.043-.193.065 1.848-4.359 6.119-6.348 7.774-6.974-.606 1.477-1.992 5.07-2.773 8.781-1.806-2.416-3.922-2.135-4.808-1.872zm7.93 1.908c-.999 0-1.845.226-2.401.421.804-4.005 2.377-7.948 2.902-9.203.74.949 3.492 4.855 3.291 10.154a5.81 5.81 0 0 0-3.792-1.372zm4.587 1.496c.208-4.581-1.643-8.122-2.796-9.856 5.331 2.565 7.129 7.802 7.657 9.985-1.998-1.218-3.882-.619-4.861-.129z"/>
</symbol><symbol id="icon-6" viewBox="0 0 30 30">
    <style>
        .st0{fill:#97c2f7}.st1{fill:#b3b3b3}.st2{fill:#fb7b76}.st3,.st4{fill:none;stroke:#000;stroke-width:.8;stroke-linecap:round;stroke-linejoin:round;stroke-miterlimit:10}.st4{stroke-width:.75}
    </style>
    <circle class="st0" cx="14.753" cy="13.331" r="1.403"/>
    <path class="st1" d="M16.792 29.285h-4.114L13.953 15h1.88z"/>
    <path class="st2" d="M12.554 1.262l2.85 7.747s-.094 1.65-.966 2.658-.816-1.373-.816-1.373l-1.804-8.632s.009-1.67.736-.4z"/>
    <path class="st2" d="M26.649 13.786l-7.968 1.2s-1.56-.414-2.352-1.444c-.793-1.03 1.473-.509 1.473-.509l8.609-.028s1.595.336.238.781z"/>
    <path class="st2" d="M5.112 20.283l5.39-5.99s1.467-.672 2.734-.38-.814 1.329-.814 1.329l-6.629 5.492c-.001.001-1.446.755-.681-.451z"/>
    <path class="st4" d="M18.621 1.425c2.277.798 4.251 2.281 5.693 4.213"/>
    <path class="st4" d="M25.888 18.241c-1.111 2.715-3.114 4.94-5.628 6.278"/>
    <ellipse class="st4" cx="14.753" cy="13.331" rx="1.351" ry="1.403"/>
    <path class="st4" d="M6.388 20.682a5.767 5.767 0 0 1-.545.416c-.268.167-.562.092-.838-.02-.102-.041-.094-.119-.03-.194.218-.258 1.006-1.178 1.006-1.178l-.002-.001c.37-.439.729-.868 1.091-1.296 1.215-1.437 2.434-2.871 3.643-4.313.212-.253.451-.36.753-.242.496.194.965.145 1.427-.11.138-.076.29-.124.43-.183l.36.696c-.2.178-.416.375-.635.568l-5.213 4.581-1.447 1.276z"/>
    <path class="st4" d="M11.905 2.208a6.237 6.237 0 0 1-.1-.694c-.017-.324.184-.559.408-.761.083-.075.145-.031.179.063l.534 1.473.002-.001c.201.544.399 1.075.594 1.607.657 1.787 1.309 3.575 1.972 5.359.116.313.096.583-.145.804-.396.365-.574.819-.572 1.362.001.162-.029.324-.045.481l-.761.006c-.059-.267-.125-.557-.187-.849l-1.469-6.927-.41-1.923z"/>
    <path class="st4" d="M26.034 13.135c.207.01.495.03.673.064.307.06.479.319.615.593.05.101-.006.154-.102.166-.328.042-1.505.188-1.505.188l.001.002c-.557.074-1.1.147-1.644.217-1.827.238-3.655.47-5.481.715-.321.043-.567-.042-.718-.338a1.662 1.662 0 0 0-1.138-.901c-.152-.038-.296-.107-.439-.16l.175-.769c.263.004.551.006.838.013l6.826.166 1.899.044z"/>
    <path class="st4" d="M15.704 14.485l1.322 14.8h-4.348l1.297-14.528"/>
    <path class="st4" d="M3.301 17.379a12.982 12.982 0 0 1-.641-4.047c0-3.83 1.65-7.26 4.252-9.564"/>
    <path class="st4" d="M11.803 25.517a11.936 11.936 0 0 1-5.074-2.786"/>
    <path class="st4" d="M17.588 3.77c2.21.706 4.081 2.216 5.296 4.202"/>
    <path class="st4" d="M5.187 14.485a10.443 10.443 0 0 1-.063-1.153c0-2.968 1.244-5.634 3.221-7.466"/>
    <path class="st4" d="M11.77 22.844a9.531 9.531 0 0 1-3.428-2.05"/>
    <path class="st4" d="M23.852 16.61c-.75 2.247-2.25 4.13-4.188 5.326"/>
    <path class="st4" d="M10.224 29.285h9.256"/>
    <path class="st4" d="M20.492 29.285h.975"/>
</symbol><symbol id="icon-facebook" viewBox="0 0 10 19">
    <title>
        facebook
    </title>
    <path d="M9.766.157v2.946H8.014c-.64 0-1.071.134-1.295.402-.223.268-.335.67-.335 1.205v2.11h3.27l-.435 3.303H6.384v8.471H2.97v-8.47H.123V6.82H2.97V4.387c0-1.384.387-2.457 1.161-3.22C4.904.404 5.934.023 7.222.023c1.093 0 1.941.045 2.544.134z" fill-rule="evenodd"/>
</symbol><symbol id="icon-fb" viewBox="0 0 32 32">
    <path d="M32 30a2 2 0 0 1-2 2H2a2 2 0 0 1-2-2V2a2 2 0 0 1 2-2h28a2 2 0 0 1 2 2v28z"/>
    <path d="M22 32V20h4l1-5h-5v-2c0-2 1.002-3 3-3h2V5h-4c-3.675 0-6 2.881-6 7v3h-4v5h4v12h5z"/>
</symbol><symbol id="icon-home" viewBox="0 0 64 64">
    <path d="M13.068 36.785v19.236c0 .483.392.876.876.876h20.645V39.479h9.698v17.418h5.769a.876.876 0 0 0 .876-.876V36.785l-18.921-18.84-18.943 18.84zm15.396 10.809h-8.751V39.48h8.751v8.114z"/>
    <path d="M54.767 29.868L32.001 7.103l-10.74 10.739v-4.726a2 2 0 0 0-4 0v8.726l-8.027 8.026a2.5 2.5 0 0 0 1.768 4.268c.64 0 1.279-.244 1.768-.731l19.232-19.23 19.23 19.229a2.501 2.501 0 0 0 3.535-3.536z"/>
</symbol><symbol id="icon-insta" viewBox="0 0 128 128">
    <path clip-rule="evenodd" fill-rule="evenodd" d="M0 0h128v128H0z"/>
    <radialGradient cx="19.111" cy="128.444" gradientUnits="userSpaceOnUse" id="a" r="163.552">
        <stop offset="0" stop-color="#ffb140"/>
        <stop offset=".256" stop-color="#ff5445"/>
        <stop offset=".599" stop-color="#fc2b82"/>
        <stop offset="1" stop-color="#8e40b7"/>
    </radialGradient>
    <path clip-rule="evenodd" d="M105.843 29.837a7.68 7.68 0 1 1-15.36 0 7.68 7.68 0 0 1 15.36 0zM64 85.333c-11.782 0-21.333-9.551-21.333-21.333 0-11.782 9.551-21.333 21.333-21.333 11.782 0 21.333 9.551 21.333 21.333 0 11.782-9.551 21.333-21.333 21.333zm0-54.198c-18.151 0-32.865 14.714-32.865 32.865 0 18.151 14.714 32.865 32.865 32.865 18.151 0 32.865-14.714 32.865-32.865 0-18.151-14.714-32.865-32.865-32.865zm0-19.603c17.089 0 19.113.065 25.861.373 6.24.285 9.629 1.327 11.884 2.204 2.987 1.161 5.119 2.548 7.359 4.788 2.24 2.239 3.627 4.371 4.788 7.359.876 2.255 1.919 5.644 2.204 11.884.308 6.749.373 8.773.373 25.862s-.065 19.113-.373 25.861c-.285 6.24-1.327 9.629-2.204 11.884-1.161 2.987-2.548 5.119-4.788 7.359-2.239 2.24-4.371 3.627-7.359 4.788-2.255.876-5.644 1.919-11.884 2.204-6.748.308-8.772.373-25.861.373-17.09 0-19.114-.065-25.862-.373-6.24-.285-9.629-1.327-11.884-2.204-2.987-1.161-5.119-2.548-7.359-4.788-2.239-2.239-3.627-4.371-4.788-7.359-.876-2.255-1.919-5.644-2.204-11.884-.308-6.749-.373-8.773-.373-25.861 0-17.089.065-19.113.373-25.862.285-6.24 1.327-9.629 2.204-11.884 1.161-2.987 2.548-5.119 4.788-7.359 2.239-2.24 4.371-3.627 7.359-4.788 2.255-.876 5.644-1.919 11.884-2.204 6.749-.308 8.773-.373 25.862-.373zM64 0C46.619 0 44.439.074 37.613.385 30.801.696 26.148 1.778 22.078 3.36c-4.209 1.635-7.778 3.824-11.336 7.382C7.184 14.3 4.995 17.869 3.36 22.078 1.778 26.149.696 30.801.385 37.613.074 44.439 0 46.619 0 64s.074 19.561.385 26.387c.311 6.812 1.393 11.464 2.975 15.535 1.635 4.209 3.824 7.778 7.382 11.336 3.558 3.558 7.127 5.746 11.336 7.382 4.071 1.582 8.723 2.664 15.535 2.975 6.826.311 9.006.385 26.387.385s19.561-.074 26.387-.385c6.812-.311 11.464-1.393 15.535-2.975 4.209-1.636 7.778-3.824 11.336-7.382 3.558-3.558 5.746-7.127 7.382-11.336 1.582-4.071 2.664-8.723 2.975-15.535.311-6.826.385-9.006.385-26.387s-.074-19.561-.385-26.387c-.311-6.812-1.393-11.464-2.975-15.535-1.636-4.209-3.824-7.778-7.382-11.336-3.558-3.558-7.127-5.746-11.336-7.382C101.851 1.778 97.199.696 90.387.385 83.561.074 81.381 0 64 0z" fill-rule="evenodd"/>
</symbol><symbol id="icon-phone" viewBox="0 0 512 512">
    <path d="M256 32c123.5 0 224 100.5 224 224S379.5 480 256 480 32 379.5 32 256 132.5 32 256 32m0-32C114.625 0 0 114.625 0 256s114.625 256 256 256 256-114.625 256-256S397.375 0 256 0zm142.719 341.594l-1.438-4.375c-3.375-10.062-14.5-20.562-24.75-23.375L334.688 303.5c-10.25-2.781-24.875.969-32.405 8.5l-13.688 13.688c-49.75-13.469-88.781-52.5-102.219-102.25l13.688-13.688c7.5-7.5 11.25-22.125 8.469-32.406L198.219 139.5c-2.781-10.25-13.344-21.375-23.406-24.75l-4.313-1.438c-10.094-3.375-24.5.031-32 7.563l-20.5 20.5c-3.656 3.625-6 14.031-6 14.063-.688 65.063 24.813 127.719 70.813 173.75 45.875 45.875 108.313 71.345 173.156 70.781.344 0 11.063-2.281 14.719-5.938l20.5-20.5c7.5-7.469 10.874-21.875 7.531-31.937z"/>
</symbol><symbol id="icon-teleg" viewBox="0 0 100 100">
    <circle cx="50" cy="50" r="45"/>
    <path clip-rule="evenodd" d="M51.474 60.754c-1.733 1.688-3.451 3.348-5.153 5.021-.595.586-1.264.91-2.118.865-.583-.031-.909-.287-1.088-.84-1.304-4.047-2.627-8.084-3.924-12.135-.126-.393-.312-.584-.71-.707a843.741 843.741 0 0 1-9.199-2.871c-.471-.15-.946-.346-1.353-.623-.629-.426-.721-1.121-.157-1.621a6.227 6.227 0 0 1 1.789-1.119c3.755-1.488 7.53-2.928 11.299-4.381 9.565-3.693 19.13-7.383 28.696-11.076 1.819-.703 3.217.287 3.028 2.254-.121 1.258-.447 2.496-.71 3.738a26979.26 26979.26 0 0 1-6.244 29.42c-.496 2.328-2.131 2.936-4.047 1.523-3.209-2.365-6.415-4.738-9.622-7.107-.153-.111-.312-.218-.487-.341zm-7.203 2.978l.108-.029c.02-.092.049-.182.057-.273.206-2.223.424-4.445.603-6.672.04-.496.21-.848.583-1.182 2.958-2.645 5.898-5.307 8.844-7.963 3.261-2.941 6.523-5.879 9.772-8.832.201-.182.285-.492.423-.744-.306-.033-.634-.156-.912-.084-.379.098-.738.318-1.076.531-7.197 4.533-14.388 9.074-21.59 13.598-.407.256-.483.473-.328.92.531 1.525 1.014 3.064 1.515 4.6l2.001 6.13z" fill-rule="evenodd"/>
</symbol></svg>